<svg width="18" height="18" viewBox="0 0 18 18" fill="none" xmlns="http://www.w3.org/2000/svg">
<path d="M17.9999 9C17.9999 9.19891 17.9209 9.38968 17.7803 9.53033C17.6396 9.67098 17.4489 9.75 17.2499 9.75H9.74994V17.25C9.74994 17.4489 9.67092 17.6397 9.53027 17.7803C9.38962 17.921 9.19885 18 8.99994 18C8.80103 18 8.61026 17.921 8.46961 17.7803C8.32896 17.6397 8.24994 17.4489 8.24994 17.25V9.75H0.749939C0.551027 9.75 0.360261 9.67098 0.219609 9.53033C0.0789567 9.38968 -6.10352e-05 9.19891 -6.10352e-05 9C-6.10352e-05 8.80109 0.0789567 8.61032 0.219609 8.46967C0.360261 8.32902 0.551027 8.25 0.749939 8.25H8.24994V0.75C8.24994 0.551088 8.32896 0.360322 8.46961 0.21967C8.61026 0.0790178 8.80103 0 8.99994 0C9.19885 0 9.38962 0.0790178 9.53027 0.21967C9.67092 0.360322 9.74994 0.551088 9.74994 0.75V8.25H17.2499C17.4489 8.25 17.6396 8.32902 17.7803 8.46967C17.9209 8.61032 17.9999 8.80109 17.9999 9Z" fill="#7D8088"/>
</svg>
