<svg width="16" height="22" viewBox="0 0 16 22" fill="none" xmlns="http://www.w3.org/2000/svg">
<path d="M15.5445 10.1552C15.5184 10.045 15.4656 9.94296 15.3906 9.85811C15.3157 9.77326 15.2209 9.70823 15.1148 9.6688L10.1639 7.81169L11.4237 1.5099C11.4523 1.36348 11.4324 1.21175 11.3671 1.07761C11.3019 0.943478 11.1947 0.83421 11.0619 0.766297C10.9291 0.698385 10.7778 0.675514 10.6309 0.701136C10.4839 0.726757 10.3493 0.799481 10.2473 0.908334L0.622264 11.2208C0.54409 11.3032 0.487539 11.4037 0.457662 11.5132C0.427785 11.6228 0.425512 11.738 0.451047 11.8487C0.476582 11.9593 0.52913 12.0619 0.603996 12.1473C0.678861 12.2327 0.773713 12.2982 0.880076 12.338L5.83265 14.1951L4.57625 20.4901C4.54772 20.6365 4.56759 20.7882 4.63286 20.9223C4.69812 21.0565 4.80525 21.1657 4.93807 21.2337C5.07088 21.3016 5.22219 21.3244 5.36914 21.2988C5.5161 21.2732 5.65073 21.2005 5.75273 21.0916L15.3777 10.7791C15.4545 10.6967 15.5098 10.5967 15.5389 10.488C15.568 10.3792 15.5699 10.2649 15.5445 10.1552ZM6.39898 18.3906L7.29875 13.8892C7.33095 13.7295 7.30543 13.5637 7.22674 13.4211C7.14805 13.2785 7.0213 13.1685 6.86906 13.1106L2.32812 11.4047L9.60015 3.61365L8.70125 8.11505C8.66905 8.2747 8.69456 8.44059 8.77325 8.58318C8.85194 8.72577 8.9787 8.83579 9.13094 8.89365L13.6684 10.5952L6.39898 18.3906Z" fill="#D4B3FF"/>
</svg>
